Coordinates
version=1
nRows=11
nColumns=40
inDegrees=yes

Units are S.I. units (second, meters, Newtons, ...)
If the header above contains a line with 'inDegrees', this indicates whether rotational values are in degrees (yes) or radians (no).

endheader
time	pelvis_tilt	pelvis_list	pelvis_rotation	pelvis_tx	pelvis_ty	pelvis_tz	hip_flexion_r	hip_adduction_r	hip_rotation_r	knee_angle_r	knee_angle_r_beta	ankle_angle_r	subtalar_angle_r	mtp_angle_r	hip_flexion_l	hip_adduction_l	hip_rotation_l	knee_angle_l	knee_angle_l_beta	ankle_angle_l	subtalar_angle_l	mtp_angle_l	lumbar_extension	lumbar_bending	lumbar_rotation	arm_flex_r	arm_add_r	arm_rot_r	elbow_flex_r	pro_sup_r	wrist_flex_r	wrist_dev_r	arm_flex_l	arm_add_l	arm_rot_l	elbow_flex_l	pro_sup_l	wrist_flex_l	wrist_dev_l
      0.15000000	      5.40410205	     -2.68928339	     -0.83745550	     -1.08422321	      0.93620181	      0.25167388	     20.17725616	      3.41151034	     -4.01579885	     24.75353827	      0.43203074	     -3.94560337	      0.00000000	      0.00000000	    -13.79180031	     -9.67016100	    -10.08485898	     49.58740749	      0.86546353	    -16.72880490	      0.00000000	      0.00000000	    -17.10331507	      4.50036297	     -2.82753876	     -2.80613989	     -6.69573347	     13.32042781	     28.82156604	     88.76318069	      0.21569416	     14.91507252	      5.02014654	     -9.57823537	     -3.55709105	     84.74459830	     89.20888040	    -10.27097086	      2.31543149
      0.16000000	      5.45501207	     -3.33527000	     -0.84171390	     -1.06975485	      0.93801690	      0.25356177	     19.30430375	      4.21270853	     -4.11108706	     25.04180274	      0.43706191	     -3.03535485	      0.00000000	      0.00000000	    -12.04534892	    -10.73499882	     -9.81094729	     52.88519500	      0.92302078	    -17.63283399	      0.00000000	      0.00000000	    -17.29376294	      5.09332633	     -2.15601665	     -2.22813891	     -6.76393841	     12.89695828	     29.52168270	     88.79372840	      0.57468535	     15.10235416	      4.49563457	     -9.22157799	     -3.19264846	     82.81517202	     89.22312643	    -10.20842663	      2.48244857
      0.17000000	      5.42157941	     -3.69992719	     -0.86458142	     -1.05575428	      0.93997986	      0.25522481	     18.46133595	      4.72808830	     -4.06856387	     25.18906681	      0.43963215	     -1.98964578	      0.00000000	      0.00000000	    -10.07498172	    -11.39587509	     -9.35390303	     56.05415428	      0.97832955	    -17.88003576	      0.00000000	      0.00000000	    -17.44755431	      5.40646776	     -1.26612416	     -1.82164674	     -6.82116008	     11.77151645	     30.49669850	     88.86290473	      1.28617617	     15.54636218	      4.25849802	     -8.85298711	     -2.50987973	     80.53938284	     89.23934469	    -10.04818878	      2.54613459
      0.18000000	      5.46303468	     -3.98496345	     -0.70963824	     -1.04191091	      0.94242825	      0.25665320	     17.40101818	      5.12169561	     -4.15435144	     25.06239030	      0.43742123	     -0.95204573	      0.00000000	      0.00000000	     -8.09384667	    -11.94237947	     -8.70307704	     58.96972099	      1.02921579	    -17.52358909	      0.00000000	      0.00000000	    -17.63733524	      5.65838509	     -0.78422163	     -1.10137039	     -6.89275581	     11.37691125	     31.14492884	     88.88289787	      1.30503149	     15.44656908	      3.86697170	     -8.57255994	     -2.05584229	     78.28001068	     89.25710277	     -9.99037503	      2.81863055
      0.19000000	      5.46748849	     -4.05696449	     -0.56208550	     -1.02829095	      0.94512748	      0.25804738	     16.29243439	      5.30516648	     -4.20975107	     24.74413195	      0.43186657	      0.01193826	      0.00000000	      0.00000000	     -6.01632157	    -12.16772442	     -7.98584788	     61.61422352	      1.07537107	    -16.65736068	      0.00000000	      0.00000000	    -17.79669922	      5.67550757	     -0.24009054	     -0.46104007	     -6.91309134	     10.61219725	     31.91455457	     88.91321094	      1.17869982	     15.24130203	      3.61095415	     -8.33383863	     -1.45650376	     75.81413923	     89.27232506	     -9.89206583	      3.06873843
      0.20000000	      5.48413537	     -3.97582210	     -0.33962311	     -1.01485089	      0.94808706	      0.25926187	     15.08415785	      5.32301832	     -4.24165999	     24.24435869	      0.42314388	      0.89936432	      0.00000000	      0.00000000	     -3.90529454	    -12.16479796	     -7.23433709	     63.95394444	      1.11620690	    -15.36725907	      0.00000000	      0.00000000	    -17.94835908	      5.54322168	      0.28021524	      0.11923545	     -6.92154554	      9.59679859	     32.77736197	     88.94898329	      0.90437845	     14.94092781	      3.47306568	     -8.13940880	     -0.74835135	     73.15352226	     89.28847996	     -9.79852100	      3.35510849
      0.21000000	      5.59075229	     -3.70719192	     -0.15485533	     -1.00136863	      0.95143738	      0.26043614	     13.67480911	      5.15651915	     -4.21707273	     23.54827089	      0.41099486	      1.71180562	      0.00000000	      0.00000000	     -1.96325320	    -11.88529274	     -6.62103813	     65.85324949	      1.14935603	    -13.68352061	      0.00000000	      0.00000000	    -18.17104241	      5.19699791	      0.69958661	      0.80317247	     -6.91099560	      8.68071998	     33.54380856	     88.95951264	      0.60014944	     14.64993939	      3.26134736	     -8.00980584	     -0.08894511	     70.51088218	     89.29706084	     -9.74602326	      3.69903488
      0.22000000	      5.57404671	     -3.35713133	      0.09408394	     -0.98788071	      0.95474732	      0.26148647	     12.31305619	      4.90088138	     -4.21091462	     22.66535237	      0.39558502	      2.28340634	      0.00000000	      0.00000000	      0.12810137	    -11.46074857	     -5.99135708	     67.41171703	      1.17655642	    -12.03941010	      0.00000000	      0.00000000	    -18.23012341	      4.78882631	      1.25979722	      1.16199395	     -6.84563814	      7.05208513	     34.68146243	     88.99434355	      0.00520951	     14.18692916	      3.24855478	     -7.91169576	      0.87618761	     67.59629274	     89.30780299	     -9.68971599	      4.14443590
      0.23000000	      5.63086304	     -2.88090017	      0.25717073	     -0.97446481	      0.95831658	      0.26253433	     10.82778310	      4.52377499	     -4.15125228	     21.68140078	      0.37841183	      2.75333709	      0.00000000	      0.00000000	      2.02694027	    -10.84953501	     -5.58285522	     68.49998772	      1.19555032	    -10.20715743	      0.00000000	      0.00000000	    -18.39301622	      4.23072461	      1.78586908	      1.62078974	     -6.78207733	      5.50181963	     35.77939986	     89.01686544	     -0.58853629	     13.74824805	      3.20019065	     -7.85998980	      1.80467118	     64.73199289	     89.31711870	     -9.67934441	      4.66092186
      0.24000000	      5.71225724	     -2.31977672	      0.36192852	     -0.96076784	      0.96186574	      0.26366562	      9.25614094	      4.06911424	     -4.01279503	     20.61013676	      0.35971475	      3.06180008	      0.00000000	      0.00000000	      3.76783454	    -10.12933499	     -5.37861483	     69.15465890	      1.20697649	     -8.25958303	      0.00000000	      0.00000000	    -18.48035548	      3.56379291	      2.01597558	      2.31801216	     -6.69996603	      4.47024308	     36.61277392	     89.01006890	     -0.94017739	     13.45635173	      2.79990276	     -7.86401499	      2.31303010	     62.13935063	     89.32165600	     -9.69262666	      5.16128535
      0.25000000	      5.74023968	     -1.74388599	      0.48980416	     -0.94696963	      0.96529000	      0.26463240	      7.68505969	      3.58006653	     -4.00222480	     19.41398507	      0.33883796	      3.28470903	      0.00000000	      0.00000000	      5.50465689	     -9.34888490	     -5.20324059	     69.41054512	      1.21144255	     -6.63107769	      0.00000000	      0.00000000	    -18.53026155	      2.89917822	      2.72335214	      2.41998148	     -6.60161727	      2.36933086	     38.13191086	     89.03403878	     -1.66016184	     12.89640768	      2.87082833	     -7.91116622	      3.63422254	     59.15826088	     89.33102889	     -9.61920782	      5.96070930
